{
	"asset":{
		"generator":"Khronos glTF Blender I/O v4.0.44",
		"version":"2.0"
	},
	"scene":0,
	"scenes":[
		{
			"name":"Scene",
			"nodes":[
				0,
				1,
				2,
				3,
				4,
				5,
				6,
				7,
				8,
				9,
				10,
				11,
				12,
				13,
				14,
				15,
				16,
				17,
				18
			]
		}
	],
	"nodes":[
		{
			"name":"AnchorPoint.006",
			"translation":[
				0,
				0.4524367153644562,
				0.19597961008548737
			]
		},
		{
			"name":"AnchorPoint.007",
			"translation":[
				0.13970011472702026,
				0.39369997382164,
				0
			]
		},
		{
			"name":"AnchorPoint.008",
			"translation":[
				0,
				0.39369997382164,
				-0.1397005021572113
			]
		},
		{
			"name":"AnchorPoint.009",
			"translation":[
				-0.21510326862335205,
				0.22273990511894226,
				0
			]
		},
		{
			"name":"AnchorPoint.010",
			"translation":[
				0.21510185301303864,
				0.22273990511894226,
				0
			]
		},
		{
			"name":"AnchorPoint.011",
			"translation":[
				0,
				0.22273990511894226,
				-0.2150997668504715
			]
		},
		{
			"name":"AnchorPoint.012",
			"translation":[
				0,
				0.22273990511894226,
				0.21510030329227448
			]
		},
		{
			"mesh":0,
			"name":"grampsBarBottom",
			"scale":[
				0.025400014594197273,
				0.025400014594197273,
				0.025400014594197273
			],
			"translation":[
				0,
				0.391885906457901,
				0
			]
		},
		{
			"mesh":1,
			"name":"grampsBarTop",
			"rotation":[
				0.70710688829422,
				0,
				-0.7071066498756409,
				5.338507946817117e-08
			],
			"scale":[
				0.025400014594197273,
				0.025400014594197273,
				0.025400014594197273
			],
			"translation":[
				0,
				0.39551448822021484,
				0
			]
		},
		{
			"mesh":2,
			"name":"grampsLeg1",
			"rotation":[
				0,
				0.7071066498756409,
				0,
				0.70710688829422
			],
			"scale":[
				0.025400014594197273,
				0.025400014594197273,
				0.025400014594197273
			],
			"translation":[
				-0.11430087685585022,
				0,
				0.01904994621872902
			]
		},
		{
			"mesh":3,
			"name":"grampsLeg2",
			"scale":[
				0.025400014594197273,
				0.025400014594197273,
				0.025400014594197273
			],
			"translation":[
				-0.019050732254981995,
				0,
				-0.1142999678850174
			]
		},
		{
			"mesh":4,
			"name":"grampsLeg3",
			"rotation":[
				0,
				-0.7071066498756409,
				0,
				0.70710688829422
			],
			"scale":[
				0.025400014594197273,
				0.025400014594197273,
				0.025400014594197273
			],
			"translation":[
				0.11429965496063232,
				0,
				-0.01905006170272827
			]
		},
		{
			"mesh":5,
			"name":"grampsLeg4",
			"rotation":[
				0,
				1,
				0,
				7.549790126404332e-08
			],
			"scale":[
				0.025400014594197273,
				0.025400014594197273,
				0.025400014594197273
			],
			"translation":[
				0.019049514085054398,
				0,
				0.11430008709430695
			]
		},
		{
			"mesh":6,
			"name":"grampsTopBody",
			"scale":[
				0.025400014594197273,
				0.025400014594197273,
				0.025400014594197273
			],
			"translation":[
				0.0004452334251254797,
				0.43440017104148865,
				-0.011213480494916439
			]
		},
		{
			"mesh":7,
			"name":"grampsTopInnerBlockLeg1",
			"scale":[
				0.025400014594197273,
				0.025400014594197273,
				0.025400014594197273
			],
			"translation":[
				-0.19647613167762756,
				0.41910016536712646,
				0.19597969949245453
			]
		},
		{
			"mesh":8,
			"name":"grampsTopInnerBlockLeg2",
			"scale":[
				0.025400014594197273,
				0.025400014594197273,
				0.025400014594197273
			],
			"translation":[
				-0.19647613167762756,
				0.41910016536712646,
				0.19597969949245453
			]
		},
		{
			"mesh":9,
			"name":"grampsTopInnerBlockLeg3",
			"scale":[
				0.025400014594197273,
				0.025400014594197273,
				0.025400014594197273
			],
			"translation":[
				-0.19647613167762756,
				0.41910016536712646,
				0.19597969949245453
			]
		},
		{
			"mesh":10,
			"name":"grampsTopInnerBlockLeg4",
			"scale":[
				0.025400014594197273,
				0.025400014594197273,
				0.025400014594197273
			],
			"translation":[
				-0.19647613167762756,
				0.41910016536712646,
				0.19597969949245453
			]
		},
		{
			"mesh":11,
			"name":"grampsTopPanel",
			"scale":[
				0.025400014594197273,
				0.025400014594197273,
				0.025400014594197273
			],
			"translation":[
				0.0008972751093097031,
				0.45720022916793823,
				-0.02179783582687378
			]
		}
	],
	"materials":[
		{
			"doubleSided":true,
			"name":"Material",
			"pbrMetallicRoughness":{
				"baseColorFactor":[
					0.800000011920929,
					0.800000011920929,
					0.800000011920929,
					1
				],
				"metallicFactor":0,
				"roughnessFactor":0.5
			}
		}
	],
	"meshes":[
		{
			"name":"ID15.001",
			"primitives":[
				{
					"attributes":{
						"POSITION":0,
						"NORMAL":1,
						"TEXCOORD_0":2
					},
					"indices":3,
					"material":0
				}
			]
		},
		{
			"name":"ID15.002",
			"primitives":[
				{
					"attributes":{
						"POSITION":4,
						"NORMAL":5,
						"TEXCOORD_0":6
					},
					"indices":3,
					"material":0
				}
			]
		},
		{
			"name":"ID5.001",
			"primitives":[
				{
					"attributes":{
						"POSITION":7,
						"NORMAL":8,
						"TEXCOORD_0":9
					},
					"indices":10,
					"material":0
				}
			]
		},
		{
			"name":"ID5.002",
			"primitives":[
				{
					"attributes":{
						"POSITION":11,
						"NORMAL":12,
						"TEXCOORD_0":13
					},
					"indices":10,
					"material":0
				}
			]
		},
		{
			"name":"ID5.004",
			"primitives":[
				{
					"attributes":{
						"POSITION":14,
						"NORMAL":15,
						"TEXCOORD_0":16
					},
					"indices":10,
					"material":0
				}
			]
		},
		{
			"name":"ID5.003",
			"primitives":[
				{
					"attributes":{
						"POSITION":17,
						"NORMAL":18,
						"TEXCOORD_0":19
					},
					"indices":10,
					"material":0
				}
			]
		},
		{
			"name":"ID48.001",
			"primitives":[
				{
					"attributes":{
						"POSITION":20,
						"NORMAL":21,
						"TEXCOORD_0":22
					},
					"indices":23,
					"material":0
				}
			]
		},
		{
			"name":"ID36.001",
			"primitives":[
				{
					"attributes":{
						"POSITION":24,
						"NORMAL":25,
						"TEXCOORD_0":26
					},
					"indices":27,
					"material":0
				}
			]
		},
		{
			"name":"ID30.001",
			"primitives":[
				{
					"attributes":{
						"POSITION":28,
						"NORMAL":29,
						"TEXCOORD_0":30
					},
					"indices":27,
					"material":0
				}
			]
		},
		{
			"name":"ID24.001",
			"primitives":[
				{
					"attributes":{
						"POSITION":31,
						"NORMAL":32,
						"TEXCOORD_0":33
					},
					"indices":27,
					"material":0
				}
			]
		},
		{
			"name":"ID42.001",
			"primitives":[
				{
					"attributes":{
						"POSITION":34,
						"NORMAL":35,
						"TEXCOORD_0":36
					},
					"indices":37,
					"material":0
				}
			]
		},
		{
			"name":"ID54.001",
			"primitives":[
				{
					"attributes":{
						"POSITION":38,
						"NORMAL":39,
						"TEXCOORD_0":40
					},
					"indices":41,
					"material":0
				}
			]
		}
	],
	"accessors":[
		{
			"bufferView":0,
			"componentType":5126,
			"count":180,
			"max":[
				0.75,
				1.0714285373687744,
				5.5
			],
			"min":[
				-0.75,
				-0.9285714626312256,
				-5.5
			],
			"type":"VEC3"
		},
		{
			"bufferView":1,
			"componentType":5126,
			"count":180,
			"type":"VEC3"
		},
		{
			"bufferView":2,
			"componentType":5126,
			"count":180,
			"type":"VEC2"
		},
		{
			"bufferView":3,
			"componentType":5123,
			"count":324,
			"type":"SCALAR"
		},
		{
			"bufferView":4,
			"componentType":5126,
			"count":180,
			"max":[
				0.75,
				1.0714285373687744,
				5.5
			],
			"min":[
				-0.75,
				-0.9285714626312256,
				-5.5
			],
			"type":"VEC3"
		},
		{
			"bufferView":5,
			"componentType":5126,
			"count":180,
			"type":"VEC3"
		},
		{
			"bufferView":6,
			"componentType":5126,
			"count":180,
			"type":"VEC2"
		},
		{
			"bufferView":7,
			"componentType":5126,
			"count":228,
			"max":[
				1.5,
				17.25,
				4.9737988115075224e-14
			],
			"min":[
				0,
				-3.138936051187702e-13,
				-3.9685781002044678
			],
			"type":"VEC3"
		},
		{
			"bufferView":8,
			"componentType":5126,
			"count":228,
			"type":"VEC3"
		},
		{
			"bufferView":9,
			"componentType":5126,
			"count":228,
			"type":"VEC2"
		},
		{
			"bufferView":10,
			"componentType":5123,
			"count":414,
			"type":"SCALAR"
		},
		{
			"bufferView":11,
			"componentType":5126,
			"count":228,
			"max":[
				1.5,
				17.25,
				4.9737988115075224e-14
			],
			"min":[
				0,
				-3.138936051187702e-13,
				-3.9685781002044678
			],
			"type":"VEC3"
		},
		{
			"bufferView":12,
			"componentType":5126,
			"count":228,
			"type":"VEC3"
		},
		{
			"bufferView":13,
			"componentType":5126,
			"count":228,
			"type":"VEC2"
		},
		{
			"bufferView":14,
			"componentType":5126,
			"count":228,
			"max":[
				1.5,
				17.25,
				4.9737988115075224e-14
			],
			"min":[
				0,
				-3.138936051187702e-13,
				-3.9685781002044678
			],
			"type":"VEC3"
		},
		{
			"bufferView":15,
			"componentType":5126,
			"count":228,
			"type":"VEC3"
		},
		{
			"bufferView":16,
			"componentType":5126,
			"count":228,
			"type":"VEC2"
		},
		{
			"bufferView":17,
			"componentType":5126,
			"count":228,
			"max":[
				1.5,
				17.25,
				4.9737988115075224e-14
			],
			"min":[
				0,
				-3.138936051187702e-13,
				-3.9685781002044678
			],
			"type":"VEC3"
		},
		{
			"bufferView":18,
			"componentType":5126,
			"count":228,
			"type":"VEC3"
		},
		{
			"bufferView":19,
			"componentType":5126,
			"count":228,
			"type":"VEC2"
		},
		{
			"bufferView":20,
			"componentType":5126,
			"count":133,
			"max":[
				7.717737674713135,
				0.8976377844810486,
				8.157209396362305
			],
			"min":[
				-7.752822399139404,
				-0.6023622155189514,
				-7.313350677490234
			],
			"type":"VEC3"
		},
		{
			"bufferView":21,
			"componentType":5126,
			"count":133,
			"type":"VEC3"
		},
		{
			"bufferView":22,
			"componentType":5126,
			"count":133,
			"type":"VEC2"
		},
		{
			"bufferView":23,
			"componentType":5123,
			"count":255,
			"type":"SCALAR"
		},
		{
			"bufferView":24,
			"componentType":5126,
			"count":20,
			"max":[
				2.297780990600586,
				0.75,
				-7.485280990600586
			],
			"min":[
				0.7977814078330994,
				0,
				-7.985280990600586
			],
			"type":"VEC3"
		},
		{
			"bufferView":25,
			"componentType":5126,
			"count":20,
			"type":"VEC3"
		},
		{
			"bufferView":26,
			"componentType":5126,
			"count":20,
			"type":"VEC2"
		},
		{
			"bufferView":27,
			"componentType":5123,
			"count":30,
			"type":"SCALAR"
		},
		{
			"bufferView":28,
			"componentType":5126,
			"count":20,
			"max":[
				7.985280990600586,
				0.75,
				-13.17278003692627
			],
			"min":[
				7.485280990600586,
				7.105426934084528e-15,
				-14.67278003692627
			],
			"type":"VEC3"
		},
		{
			"bufferView":29,
			"componentType":5126,
			"count":20,
			"type":"VEC3"
		},
		{
			"bufferView":30,
			"componentType":5126,
			"count":20,
			"type":"VEC2"
		},
		{
			"bufferView":31,
			"componentType":5126,
			"count":20,
			"max":[
				14.67278003692627,
				0.75,
				-7.485280990600586
			],
			"min":[
				13.17278003692627,
				0,
				-7.985280990600586
			],
			"type":"VEC3"
		},
		{
			"bufferView":32,
			"componentType":5126,
			"count":20,
			"type":"VEC3"
		},
		{
			"bufferView":33,
			"componentType":5126,
			"count":20,
			"type":"VEC2"
		},
		{
			"bufferView":34,
			"componentType":5126,
			"count":24,
			"max":[
				7.985280990600586,
				0.75,
				-0.7977814078330994
			],
			"min":[
				7.485280990600586,
				7.105426934084528e-15,
				-2.297780990600586
			],
			"type":"VEC3"
		},
		{
			"bufferView":35,
			"componentType":5126,
			"count":24,
			"type":"VEC3"
		},
		{
			"bufferView":36,
			"componentType":5126,
			"count":24,
			"type":"VEC2"
		},
		{
			"bufferView":37,
			"componentType":5123,
			"count":42,
			"type":"SCALAR"
		},
		{
			"bufferView":38,
			"componentType":5126,
			"count":18,
			"max":[
				7.512423515319824,
				0,
				8.386422157287598
			],
			"min":[
				-7.583136558532715,
				0,
				-6.709137916564941
			],
			"type":"VEC3"
		},
		{
			"bufferView":39,
			"componentType":5126,
			"count":18,
			"type":"VEC3"
		},
		{
			"bufferView":40,
			"componentType":5126,
			"count":18,
			"type":"VEC2"
		},
		{
			"bufferView":41,
			"componentType":5123,
			"count":42,
			"type":"SCALAR"
		}
	],
	"bufferViews":[
		{
			"buffer":0,
			"byteLength":2160,
			"byteOffset":0,
			"target":34962
		},
		{
			"buffer":0,
			"byteLength":2160,
			"byteOffset":2160,
			"target":34962
		},
		{
			"buffer":0,
			"byteLength":1440,
			"byteOffset":4320,
			"target":34962
		},
		{
			"buffer":0,
			"byteLength":648,
			"byteOffset":5760,
			"target":34963
		},
		{
			"buffer":0,
			"byteLength":2160,
			"byteOffset":6408,
			"target":34962
		},
		{
			"buffer":0,
			"byteLength":2160,
			"byteOffset":8568,
			"target":34962
		},
		{
			"buffer":0,
			"byteLength":1440,
			"byteOffset":10728,
			"target":34962
		},
		{
			"buffer":0,
			"byteLength":2736,
			"byteOffset":12168,
			"target":34962
		},
		{
			"buffer":0,
			"byteLength":2736,
			"byteOffset":14904,
			"target":34962
		},
		{
			"buffer":0,
			"byteLength":1824,
			"byteOffset":17640,
			"target":34962
		},
		{
			"buffer":0,
			"byteLength":828,
			"byteOffset":19464,
			"target":34963
		},
		{
			"buffer":0,
			"byteLength":2736,
			"byteOffset":20292,
			"target":34962
		},
		{
			"buffer":0,
			"byteLength":2736,
			"byteOffset":23028,
			"target":34962
		},
		{
			"buffer":0,
			"byteLength":1824,
			"byteOffset":25764,
			"target":34962
		},
		{
			"buffer":0,
			"byteLength":2736,
			"byteOffset":27588,
			"target":34962
		},
		{
			"buffer":0,
			"byteLength":2736,
			"byteOffset":30324,
			"target":34962
		},
		{
			"buffer":0,
			"byteLength":1824,
			"byteOffset":33060,
			"target":34962
		},
		{
			"buffer":0,
			"byteLength":2736,
			"byteOffset":34884,
			"target":34962
		},
		{
			"buffer":0,
			"byteLength":2736,
			"byteOffset":37620,
			"target":34962
		},
		{
			"buffer":0,
			"byteLength":1824,
			"byteOffset":40356,
			"target":34962
		},
		{
			"buffer":0,
			"byteLength":1596,
			"byteOffset":42180,
			"target":34962
		},
		{
			"buffer":0,
			"byteLength":1596,
			"byteOffset":43776,
			"target":34962
		},
		{
			"buffer":0,
			"byteLength":1064,
			"byteOffset":45372,
			"target":34962
		},
		{
			"buffer":0,
			"byteLength":510,
			"byteOffset":46436,
			"target":34963
		},
		{
			"buffer":0,
			"byteLength":240,
			"byteOffset":46948,
			"target":34962
		},
		{
			"buffer":0,
			"byteLength":240,
			"byteOffset":47188,
			"target":34962
		},
		{
			"buffer":0,
			"byteLength":160,
			"byteOffset":47428,
			"target":34962
		},
		{
			"buffer":0,
			"byteLength":60,
			"byteOffset":47588,
			"target":34963
		},
		{
			"buffer":0,
			"byteLength":240,
			"byteOffset":47648,
			"target":34962
		},
		{
			"buffer":0,
			"byteLength":240,
			"byteOffset":47888,
			"target":34962
		},
		{
			"buffer":0,
			"byteLength":160,
			"byteOffset":48128,
			"target":34962
		},
		{
			"buffer":0,
			"byteLength":240,
			"byteOffset":48288,
			"target":34962
		},
		{
			"buffer":0,
			"byteLength":240,
			"byteOffset":48528,
			"target":34962
		},
		{
			"buffer":0,
			"byteLength":160,
			"byteOffset":48768,
			"target":34962
		},
		{
			"buffer":0,
			"byteLength":288,
			"byteOffset":48928,
			"target":34962
		},
		{
			"buffer":0,
			"byteLength":288,
			"byteOffset":49216,
			"target":34962
		},
		{
			"buffer":0,
			"byteLength":192,
			"byteOffset":49504,
			"target":34962
		},
		{
			"buffer":0,
			"byteLength":84,
			"byteOffset":49696,
			"target":34963
		},
		{
			"buffer":0,
			"byteLength":216,
			"byteOffset":49780,
			"target":34962
		},
		{
			"buffer":0,
			"byteLength":216,
			"byteOffset":49996,
			"target":34962
		},
		{
			"buffer":0,
			"byteLength":144,
			"byteOffset":50212,
			"target":34962
		},
		{
			"buffer":0,
			"byteLength":84,
			"byteOffset":50356,
			"target":34963
		}
	],
	"buffers":[
		{
			"byteLength":50440,
			"uri":"gramps.bin"
		}
	]
}
